{
  "accessors": [
    {
      "bufferView": 2,
      "componentType": 5126,
      "count": 1089,
      "max": [
        338.66802978515625,
        26.150876998901367,
        338.66802978515625
      ],
      "min": [
        -338.66802978515625,
        0.0,
        -338.6995544433594
      ],
      "type": "VEC3"
    },
    {
      "bufferView": 2,
      "byteOffset": 13068,
      "componentType": 5126,
      "count": 1089,
      "max": [
        0.24291165173053741,
        1.0,
        0.3156508803367615
      ],
      "min": [
        -0.23352111876010895,
        0.9461655616760254,
        -0.2834126949310303
      ],
      "type": "VEC3"
    },
    {
      "bufferView": 1,
      "componentType": 5126,
      "count": 1089,
      "max": [
        0.9824684858322144,
        0.965469479560852
      ],
      "min": [
        0.03123563528060913,
        0.03657245635986328
      ],
      "type": "VEC2"
    },
    {
      "bufferView": 0,
      "componentType": 5125,
      "count": 6144,
      "type": "SCALAR"
    },
    {
      "bufferView": 2,
      "byteOffset": 26136,
      "componentType": 5126,
      "count": 4952,
      "max": [
        112.02206420898438,
        125.6201400756836,
        150.23060607910156
      ],
      "min": [
        -130.897705078125,
        -3.9008595943450928,
        -154.8909912109375
      ],
      "type": "VEC3"
    },
    {
      "bufferView": 2,
      "byteOffset": 85560,
      "componentType": 5126,
      "count": 4952,
      "max": [
        0.9994556903839111,
        0.9998758435249329,
        0.9999982714653015
      ],
      "min": [
        -0.9995664358139038,
        -1.0,
        -0.9999504685401917
      ],
      "type": "VEC3"
    },
    {
      "bufferView": 3,
      "componentType": 5126,
      "count": 4952,
      "max": [
        0.9999549388885498,
        0.9999710321426392,
        0.9994747042655945,
        1.0
      ],
      "min": [
        -0.9999832510948181,
        -0.9995518922805786,
        -0.9990237951278687,
        -1.0
      ],
      "type": "VEC4"
    },
    {
      "bufferView": 1,
      "byteOffset": 8712,
      "componentType": 5126,
      "count": 4952,
      "max": [
        0.9900200366973877,
        0.998046875
      ],
      "min": [
        0.001953125,
        0.001953125
      ],
      "type": "VEC2"
    },
    {
      "bufferView": 1,
      "byteOffset": 48328,
      "componentType": 5126,
      "count": 4952,
      "max": [
        0.9900200366973877,
        0.998046875
      ],
      "min": [
        0.001953125,
        0.001953125
      ],
      "type": "VEC2"
    },
    {
      "bufferView": 0,
      "byteOffset": 24576,
      "componentType": 5125,
      "count": 21714,
      "type": "SCALAR"
    },
    {
      "bufferView": 2,
      "byteOffset": 144984,
      "componentType": 5126,
      "count": 5159,
      "max": [
        193.2198944091797,
        144.76759338378906,
        207.21893310546875
      ],
      "min": [
        -192.6172332763672,
        -5.380306243896484,
        -219.85443115234375
      ],
      "type": "VEC3"
    },
    {
      "bufferView": 2,
      "byteOffset": 206892,
      "componentType": 5126,
      "count": 5159,
      "max": [
        1.0,
        0.9999944567680359,
        0.9999920725822449
      ],
      "min": [
        -0.9940810203552246,
        -0.9999701380729675,
        -0.9999600052833557
      ],
      "type": "VEC3"
    },
    {
      "bufferView": 3,
      "byteOffset": 79232,
      "componentType": 5126,
      "count": 5159,
      "max": [
        0.9999920129776001,
        0.669328510761261,
        0.9998744130134583,
        1.0
      ],
      "min": [
        -0.9999747276306152,
        -0.7392662763595581,
        -1.0,
        1.0
      ],
      "type": "VEC4"
    },
    {
      "bufferView": 1,
      "byteOffset": 87944,
      "componentType": 5126,
      "count": 5159,
      "max": [
        0.9875569343566895,
        0.874900221824646
      ],
      "min": [
        0.011545803397893906,
        0.04689198359847069
      ],
      "type": "VEC2"
    },
    {
      "bufferView": 1,
      "byteOffset": 129216,
      "componentType": 5126,
      "count": 5159,
      "max": [
        0.9875569343566895,
        0.874900221824646
      ],
      "min": [
        0.011545803397893906,
        0.04689198359847069
      ],
      "type": "VEC2"
    },
    {
      "bufferView": 0,
      "byteOffset": 111432,
      "componentType": 5125,
      "count": 11460,
      "type": "SCALAR"
    },
    {
      "bufferView": 2,
      "byteOffset": 268800,
      "componentType": 5126,
      "count": 364,
      "max": [
        64.38240814208984,
        122.41024017333984,
        126.40687561035156
      ],
      "min": [
        -95.8571548461914,
        34.18117904663086,
        -155.2377471923828
      ],
      "type": "VEC3"
    },
    {
      "bufferView": 2,
      "byteOffset": 273168,
      "componentType": 5126,
      "count": 364,
      "max": [
        1.0,
        1.0,
        1.0
      ],
      "min": [
        -1.0,
        -1.0,
        -1.0
      ],
      "type": "VEC3"
    },
    {
      "bufferView": 1,
      "byteOffset": 170488,
      "componentType": 5126,
      "count": 364,
      "max": [
        0.0,
        0.0
      ],
      "min": [
        0.0,
        0.0
      ],
      "type": "VEC2"
    },
    {
      "bufferView": 0,
      "byteOffset": 157272,
      "componentType": 5125,
      "count": 2016,
      "type": "SCALAR"
    },
    {
      "bufferView": 2,
      "byteOffset": 277536,
      "componentType": 5126,
      "count": 1788,
      "max": [
        89.99858856201172,
        153.8507843017578,
        159.286865234375
      ],
      "min": [
        -117.81129455566406,
        13.79442024230957,
        -159.8451385498047
      ],
      "type": "VEC3"
    },
    {
      "bufferView": 2,
      "byteOffset": 298992,
      "componentType": 5126,
      "count": 1788,
      "max": [
        0.999996542930603,
        0.999336838722229,
        0.9918436408042908
      ],
      "min": [
        -0.9989321827888489,
        -0.9998071789741516,
        -0.9993964433670044
      ],
      "type": "VEC3"
    },
    {
      "bufferView": 3,
      "byteOffset": 161776,
      "componentType": 5126,
      "count": 1788,
      "max": [
        0.9998473525047302,
        0.99930340051651,
        0.9923636317253113,
        1.0
      ],
      "min": [
        -0.9999535083770752,
        -0.998892068862915,
        -0.9999153017997742,
        -1.0
      ],
      "type": "VEC4"
    },
    {
      "bufferView": 1,
      "byteOffset": 173400,
      "componentType": 5126,
      "count": 1788,
      "max": [
        0.9531995058059692,
        0.998046875
      ],
      "min": [
        0.001953125,
        0.001953125
      ],
      "type": "VEC2"
    },
    {
      "bufferView": 1,
      "byteOffset": 187704,
      "componentType": 5126,
      "count": 1788,
      "max": [
        0.9531995058059692,
        0.998046875
      ],
      "min": [
        0.001953125,
        0.001953125
      ],
      "type": "VEC2"
    },
    {
      "bufferView": 0,
      "byteOffset": 165336,
      "componentType": 5125,
      "count": 7512,
      "type": "SCALAR"
    },
    {
      "bufferView": 4,
      "componentType": 5126,
      "count": 200,
      "max": [
        6.633333206176758
      ],
      "min": [
        0.0
      ],
      "type": "SCALAR"
    },
    {
      "bufferView": 5,
      "componentType": 5126,
      "count": 200,
      "max": [
        8.312207611880837e-17,
        0.9999299049377441,
        8.312207611880837e-17,
        1.0
      ],
      "min": [
        -8.659554647726144e-17,
        -0.8659616708755493,
        -8.659554647726144e-17,
        -0.480481892824173
      ],
      "type": "VEC4"
    },
    {
      "bufferView": 4,
      "byteOffset": 800,
      "componentType": 5126,
      "count": 200,
      "max": [
        6.633333206176758
      ],
      "min": [
        0.0
      ],
      "type": "SCALAR"
    },
    {
      "bufferView": 5,
      "byteOffset": 3200,
      "componentType": 5126,
      "count": 200,
      "max": [
        8.312207611880837e-17,
        0.9999299049377441,
        8.312207611880837e-17,
        1.0
      ],
      "min": [
        -8.659554647726144e-17,
        -0.8659616708755493,
        -8.659554647726144e-17,
        -0.480481892824173
      ],
      "type": "VEC4"
    }
  ],
  "animations": [
    {
      "channels": [
        {
          "sampler": 0,
          "target": {
            "node": 4,
            "path": "rotation"
          }
        }
      ],
      "name": "Plane.220|Plane.220Action",
      "samplers": [
        {
          "input": 26,
          "interpolation": "LINEAR",
          "output": 27
        }
      ]
    },
    {
      "channels": [
        {
          "sampler": 0,
          "target": {
            "node": 4,
            "path": "rotation"
          }
        }
      ],
      "name": "Plane.220|Point.003Action",
      "samplers": [
        {
          "input": 28,
          "interpolation": "LINEAR",
          "output": 29
        }
      ]
    }
  ],
  "asset": {
    "extras": {
      "author": "July (https://sketchfab.com/july.pl034)",
      "license": "CC-BY-4.0 (http://creativecommons.org/licenses/by/4.0/)",
      "source": "https://sketchfab.com/3d-models/mossy-log-cddd09ba67f04233997bec620e9e0a22",
      "title": "Mossy Log"
    },
    "generator": "Sketchfab-16.62.0",
    "version": "2.0"
  },
  "bufferViews": [
    {
      "buffer": 0,
      "byteLength": 195384,
      "name": "floatBufferViews",
      "target": 34963
    },
    {
      "buffer": 0,
      "byteLength": 202008,
      "byteOffset": 195384,
      "byteStride": 8,
      "name": "floatBufferViews",
      "target": 34962
    },
    {
      "buffer": 0,
      "byteLength": 320448,
      "byteOffset": 397392,
      "byteStride": 12,
      "name": "floatBufferViews",
      "target": 34962
    },
    {
      "buffer": 0,
      "byteLength": 190384,
      "byteOffset": 717840,
      "byteStride": 16,
      "name": "floatBufferViews",
      "target": 34962
    },
    {
      "buffer": 0,
      "byteLength": 1600,
      "byteOffset": 908224,
      "name": "floatBufferViews"
    },
    {
      "buffer": 0,
      "byteLength": 6400,
      "byteOffset": 909824,
      "byteStride": 16,
      "name": "floatBufferViews"
    }
  ],
  "buffers": [
    {
      "byteLength": 916224,
      "uri": "scene.bin"
    }
  ],
  "extensionsUsed": [
    "KHR_materials_specular",
    "KHR_materials_emissive_strength"
  ],
  "images": [
    {
      "uri": "textures/ground_baseColor.png"
    },
    {
      "uri": "textures/mushrooms_and_rock_baseColor.png"
    },
    {
      "uri": "textures/mushrooms_and_rock_normal.png"
    },
    {
      "uri": "textures/Material.001_baseColor.png"
    },
    {
      "uri": "textures/Material.001_normal.png"
    },
    {
      "uri": "textures/material_baseColor.png"
    },
    {
      "uri": "textures/material_normal.png"
    }
  ],
  "materials": [
    {
      "alphaCutoff": 0.6081800673732107,
      "alphaMode": "MASK",
      "doubleSided": true,
      "extensions": {
        "KHR_materials_specular": {
          "specularColorFactor": [
            1.0,
            1.0,
            1.0
          ],
          "specularFactor": 0.0
        }
      },
      "name": "ground",
      "pbrMetallicRoughness": {
        "baseColorTexture": {
          "index": 0
        },
        "metallicFactor": 0.0
      }
    },
    {
      "doubleSided": true,
      "extensions": {
        "KHR_materials_specular": {
          "specularColorFactor": [
            1.0,
            1.0,
            1.0
          ],
          "specularFactor": 0.061273734197872604
        }
      },
      "name": "mushrooms_and_rock",
      "normalTexture": {
        "index": 2
      },
      "pbrMetallicRoughness": {
        "baseColorTexture": {
          "index": 1
        },
        "metallicFactor": 0.0,
        "roughnessFactor": 0.9771715428792237
      }
    },
    {
      "alphaCutoff": 0.4623383785264539,
      "alphaMode": "MASK",
      "doubleSided": true,
      "extensions": {
        "KHR_materials_specular": {
          "specularColorFactor": [
            1.0,
            1.0,
            1.0
          ],
          "specularFactor": 0.09773415640956182
        }
      },
      "name": "Material.001",
      "normalTexture": {
        "index": 4
      },
      "pbrMetallicRoughness": {
        "baseColorTexture": {
          "index": 3
        },
        "metallicFactor": 0.0,
        "roughnessFactor": 0.8611199372313644
      }
    },
    {
      "doubleSided": true,
      "emissiveFactor": [
        0.7880199999999998,
        1.0,
        0.0
      ],
      "extensions": {
        "KHR_materials_emissive_strength": {
          "emissiveStrength": 10.0
        },
        "KHR_materials_specular": {
          "specularColorFactor": [
            1.0,
            1.0,
            1.0
          ],
          "specularFactor": 0.0
        }
      },
      "name": "Material.002",
      "pbrMetallicRoughness": {
        "baseColorFactor": [
          0.10338685365020887,
          1.0,
          0.17018893184182338,
          1.0
        ],
        "metallicFactor": 0.0,
        "roughnessFactor": 0.0
      }
    },
    {
      "doubleSided": true,
      "extensions": {
        "KHR_materials_specular": {
          "specularColorFactor": [
            1.0,
            1.0,
            1.0
          ],
          "specularFactor": 0.17673173786822177
        }
      },
      "name": "material",
      "normalTexture": {
        "index": 6
      },
      "pbrMetallicRoughness": {
        "baseColorTexture": {
          "index": 5
        },
        "metallicFactor": 0.0
      }
    }
  ],
  "meshes": [
    {
      "name": "Plane.220_ground_0",
      "primitives": [
        {
          "attributes": {
            "NORMAL": 1,
            "POSITION": 0,
            "TEXCOORD_0": 2
          },
          "indices": 3,
          "material": 0,
          "mode": 4
        }
      ]
    },
    {
      "name": "Plane.220_mushrooms and rock_0",
      "primitives": [
        {
          "attributes": {
            "NORMAL": 5,
            "POSITION": 4,
            "TANGENT": 6,
            "TEXCOORD_0": 7,
            "TEXCOORD_1": 8
          },
          "indices": 9,
          "material": 1,
          "mode": 4
        }
      ]
    },
    {
      "name": "Plane.220_Material.001_0",
      "primitives": [
        {
          "attributes": {
            "NORMAL": 11,
            "POSITION": 10,
            "TANGENT": 12,
            "TEXCOORD_0": 13,
            "TEXCOORD_1": 14
          },
          "indices": 15,
          "material": 2,
          "mode": 4
        }
      ]
    },
    {
      "name": "Plane.220_Material.002_0",
      "primitives": [
        {
          "attributes": {
            "NORMAL": 17,
            "POSITION": 16,
            "TEXCOORD_0": 18
          },
          "indices": 19,
          "material": 3,
          "mode": 4
        }
      ]
    },
    {
      "name": "Plane.220_log_0",
      "primitives": [
        {
          "attributes": {
            "NORMAL": 21,
            "POSITION": 20,
            "TANGENT": 22,
            "TEXCOORD_0": 23,
            "TEXCOORD_1": 24
          },
          "indices": 25,
          "material": 4,
          "mode": 4
        }
      ]
    }
  ],
  "nodes": [
    {
      "children": [
        1
      ],
      "matrix": [
        1.0,
        0.0,
        0.0,
        0.0,
        0.0,
        2.220446049250313e-16,
        -1.0,
        0.0,
        0.0,
        1.0,
        2.220446049250313e-16,
        0.0,
        0.0,
        0.0,
        0.0,
        1.0
      ],
      "name": "Sketchfab_model"
    },
    {
      "children": [
        2
      ],
      "matrix": [
        0.009999999776482582,
        0.0,
        0.0,
        0.0,
        0.0,
        0.0,
        0.009999999776482582,
        0.0,
        0.0,
        -0.009999999776482582,
        0.0,
        0.0,
        0.0,
        0.0,
        0.0,
        1.0
      ],
      "name": "7c6f9f9c5e464ab9bfe6bc1dc28092ea.fbx"
    },
    {
      "children": [
        3
      ],
      "name": "Object_2"
    },
    {
      "children": [
        4
      ],
      "name": "RootNode"
    },
    {
      "children": [
        5,
        6,
        7,
        8,
        9
      ],
      "name": "Plane.220",
      "rotation": [
        0.0,
        -0.01138725783675909,
        0.0,
        0.9999352693557739
      ],
      "scale": [
        1.4622125625610352,
        1.4622124433517456,
        1.4622125625610352
      ]
    },
    {
      "mesh": 0,
      "name": "Plane.220_ground_0"
    },
    {
      "mesh": 1,
      "name": "Plane.220_mushrooms and rock_0"
    },
    {
      "mesh": 2,
      "name": "Plane.220_Material.001_0"
    },
    {
      "mesh": 3,
      "name": "Plane.220_Material.002_0"
    },
    {
      "mesh": 4,
      "name": "Plane.220_log_0"
    }
  ],
  "samplers": [
    {
      "magFilter": 9729,
      "minFilter": 9987,
      "wrapS": 10497,
      "wrapT": 10497
    }
  ],
  "scene": 0,
  "scenes": [
    {
      "name": "Sketchfab_Scene",
      "nodes": [
        0
      ]
    }
  ],
  "textures": [
    {
      "sampler": 0,
      "source": 0
    },
    {
      "sampler": 0,
      "source": 1
    },
    {
      "sampler": 0,
      "source": 2
    },
    {
      "sampler": 0,
      "source": 3
    },
    {
      "sampler": 0,
      "source": 4
    },
    {
      "sampler": 0,
      "source": 5
    },
    {
      "sampler": 0,
      "source": 6
    }
  ]
}
